# xmcd CD database file
#
# Track frame offsets:
#	150
#	19282
#	30675
#	46416
#	61884
#	78828
#	84670
#	96033
#	109837
#	119017
#	135744
#	152559
#	171972
#	188673
#
# Disc length: 2754 seconds
#
# Revision: 2
# Processed by: cddbd v1.5.2PL0 Copyright (c) Steve Scherf et al.
# Submitted via: CDex 1.51
#
DISCID=b30ac00e
DTITLE=Semafor - Recital 64 CD1
DYEAR=2006
DGENRE=Jazz
TTITLE0=Blues touhy po svetle
TTITLE1=Uvod Jiriho Sucheho
TTITLE2=Divka, kterou zkazil svet
TTITLE3=Pul parku
TTITLE4=Blues o stabilite
TTITLE5=Uvod Jiriho Slitra
TTITLE6=Klokoci
TTITLE7=Predstaveni skupiny Jiriho Bazanta
TTITLE8=V kasne
TTITLE9=Cerna vrana
TTITLE10=Neni-li tu ta
TTITLE11=Mnozeni
TTITLE12=Student s rudyma usima
TTITLE13=Labuti pisen
EXTD=YEAR: 2006
EXTT0=
EXTT1=
EXTT2=
EXTT3=
EXTT4=
EXTT5=
EXTT6=
EXTT7=
EXTT8=
EXTT9=
EXTT10=
EXTT11=
EXTT12=
EXTT13=
PLAYORDER=
